<?xml version="1.0" encoding="UTF-8" standalone="no"?>
<svg
   enable-background="new 0 0 1920 1000"
   viewBox="0 0 1920 1000"
   version="1.1"
   id="svg19"
   sodipodi:docname="hero-area.svg"
   inkscape:version="1.1.2 (0a00cf5339, 2022-02-04)"
   xmlns:inkscape="http://www.inkscape.org/namespaces/inkscape"
   xmlns:sodipodi="http://sodipodi.sourceforge.net/DTD/sodipodi-0.dtd"
   xmlns:xlink="http://www.w3.org/1999/xlink"
   xmlns="http://www.w3.org/2000/svg"
   xmlns:svg="http://www.w3.org/2000/svg">
  <defs
     id="defs23" />
  <sodipodi:namedview
     id="namedview21"
     pagecolor="#505050"
     bordercolor="#eeeeee"
     borderopacity="1"
     inkscape:pageshadow="0"
     inkscape:pageopacity="0"
     inkscape:pagecheckerboard="0"
     showgrid="false"
     inkscape:zoom="0.493"
     inkscape:cx="1194.7262"
     inkscape:cy="805.27383"
     inkscape:window-width="1366"
     inkscape:window-height="706"
     inkscape:window-x="0"
     inkscape:window-y="25"
     inkscape:window-maximized="1"
     inkscape:current-layer="svg19" />
  <clipPath
     id="a">
    <path
       d="m-82.2 543.8h2002.3v472.9h-2002.3z"
       id="path2" />
  </clipPath>
  <linearGradient
     id="b"
     gradientUnits="userSpaceOnUse"
     x1="570.2373"
     x2="1963.2894"
     y1="775.59473"
     y2="775.59473"
     xlink:href="#c">
    <stop
       offset="0"
       stop-color="#f02b81"
       id="stop5"
       style="stop-color:#008097;stop-opacity:1" />
    <stop
       offset="1"
       stop-color="#f08a5b"
       id="stop7"
       style="stop-color:#2bafc8;stop-opacity:1" />
  </linearGradient>
  <linearGradient
     id="c"
     gradientUnits="userSpaceOnUse"
     x1="87.2861"
     x2="2035.2726"
     y1="895.3835"
     y2="895.3835">
    <stop
       offset="0"
       stop-color="#ff4c8e"
       id="stop10"
       style="stop-color:#2492a7;stop-opacity:1" />
    <stop
       offset="1"
       stop-color="#ffab7f"
       id="stop12"
       style="stop-color:#1cd8fd;stop-opacity:1" />
  </linearGradient>
  <path
     clip-path="url(#a)"
     d="m570.2 870.9c129.2-102.3 299.6-137 464.1-145.7 164.6-8.7 330.3 5.4 494-13.8 126.6-14.8 250.8-49.6 366.6-102.6 16.8-7.7 37.2-15.6 52.8-5.6 17 10.9 16.7 35.5 14.3 55.6-8 68.4-19.7 144-73.3 187.2-32.6 26.2-75.2 35.6-116.3 43.5-284.4 54.4-575.4 73.9-864.6 57.9-116.1-6.6-235.8-19.9-337.6-76.5z"
     fill="url(#b)"
     id="path15"
     style="fill-opacity:1.0" />
  <path
     clip-path="url(#a)"
     d="m1245.5 845.7c212.2-21.9 411.9-126 625.1-129.2 37.4-.6 77.2 2.8 107.4 25 48.3 35.5 54.7 103.9 56.8 163.8 1.5 42.5 1.2 90-28.1 120.9-28.6 30.1-74.7 33.6-116.2 34.3-309.3 5.4-618.3-33.3-927.5-24.6-287.6 8.1-599.8 81.8-875.7.4 74.7-111.5 223.2-200.7 355.7-222.8s268-7.2 401.2 9.9c133.2 17 267.7 36.1 401.3 22.3z"
     fill="url(#c)"
     id="path17" />
</svg>
